ply
format ascii 1.0
comment Created by Blender 2.82 (sub 7) - www.blender.org, source file: ''
element vertex 64
property float x
property float y
property float z
element face 34
property list uchar uint vertex_indices
end_header
0.000000 1.000000 -1.000000
0.000000 1.000000 1.000000
0.195090 0.980785 1.000000
0.195090 0.980785 -1.000000
0.382683 0.923880 1.000000
0.382683 0.923880 -1.000000
0.555570 0.831470 1.000000
0.555570 0.831470 -1.000000
0.707107 0.707107 1.000000
0.707107 0.707107 -1.000000
0.831470 0.555570 1.000000
0.831470 0.555570 -1.000000
0.923880 0.382683 1.000000
0.923880 0.382683 -1.000000
0.980785 0.195090 1.000000
0.980785 0.195090 -1.000000
1.000000 0.000000 1.000000
1.000000 0.000000 -1.000000
0.980785 -0.195090 1.000000
0.980785 -0.195090 -1.000000
0.923880 -0.382683 1.000000
0.923880 -0.382683 -1.000000
0.831470 -0.555570 1.000000
0.831470 -0.555570 -1.000000
0.707107 -0.707107 1.000000
0.707107 -0.707107 -1.000000
0.555570 -0.831470 1.000000
0.555570 -0.831470 -1.000000
0.382683 -0.923880 1.000000
0.382683 -0.923880 -1.000000
0.195090 -0.980785 1.000000
0.195090 -0.980785 -1.000000
-0.000000 -1.000000 1.000000
-0.000000 -1.000000 -1.000000
-0.195091 -0.980785 1.000000
-0.195091 -0.980785 -1.000000
-0.382684 -0.923879 1.000000
-0.382684 -0.923879 -1.000000
-0.555571 -0.831469 1.000000
-0.555571 -0.831469 -1.000000
-0.707107 -0.707106 1.000000
-0.707107 -0.707106 -1.000000
-0.831470 -0.555570 1.000000
-0.831470 -0.555570 -1.000000
-0.923880 -0.382683 1.000000
-0.923880 -0.382683 -1.000000
-0.980785 -0.195089 1.000000
-0.980785 -0.195089 -1.000000
-1.000000 0.000001 1.000000
-1.000000 0.000001 -1.000000
-0.980785 0.195091 1.000000
-0.980785 0.195091 -1.000000
-0.923879 0.382684 1.000000
-0.923879 0.382684 -1.000000
-0.831469 0.555571 1.000000
-0.831469 0.555571 -1.000000
-0.707106 0.707108 1.000000
-0.707106 0.707108 -1.000000
-0.555569 0.831470 1.000000
-0.555569 0.831470 -1.000000
-0.382682 0.923880 1.000000
-0.382682 0.923880 -1.000000
-0.195089 0.980786 1.000000
-0.195089 0.980786 -1.000000
4 0 1 2 3
4 3 2 4 5
4 5 4 6 7
4 7 6 8 9
4 9 8 10 11
4 11 10 12 13
4 13 12 14 15
4 15 14 16 17
4 17 16 18 19
4 19 18 20 21
4 21 20 22 23
4 23 22 24 25
4 25 24 26 27
4 27 26 28 29
4 29 28 30 31
4 31 30 32 33
4 33 32 34 35
4 35 34 36 37
4 37 36 38 39
4 39 38 40 41
4 41 40 42 43
4 43 42 44 45
4 45 44 46 47
4 47 46 48 49
4 49 48 50 51
4 51 50 52 53
4 53 52 54 55
4 55 54 56 57
4 57 56 58 59
4 59 58 60 61
32 2 1 62 60 58 56 54 52 50 48 46 44 42 40 38 36 34 32 30 28 26 24 22 20 18 16 14 12 10 8 6 4
4 61 60 62 63
4 63 62 1 0
32 0 3 5 7 9 11 13 15 17 19 21 23 25 27 29 31 33 35 37 39 41 43 45 47 49 51 53 55 57 59 61 63
